<svg width="240" height="240" viewBox="0 0 240 240" fill="none" xmlns="http://www.w3.org/2000/svg">
<path d="M30 70V50C30 44.6957 32.1071 39.6086 35.8579 35.8579C39.6086 32.1071 44.6957 30 50 30H70" stroke="#BB0E2F" stroke-width="15" stroke-linecap="round" stroke-linejoin="round"/>
<path d="M170 30H190C195.304 30 200.391 32.1071 204.142 35.8579C207.893 39.6086 210 44.6957 210 50V70" stroke="#BB0E2F" stroke-width="15" stroke-linecap="round" stroke-linejoin="round"/>
<path d="M210 170V190C210 195.304 207.893 200.391 204.142 204.142C200.391 207.893 195.304 210 190 210H170" stroke="#BB0E2F" stroke-width="15" stroke-linecap="round" stroke-linejoin="round"/>
<path d="M70 210H50C44.6957 210 39.6086 207.893 35.8579 204.142C32.1071 200.391 30 195.304 30 190V170" stroke="#BB0E2F" stroke-width="15" stroke-linecap="round" stroke-linejoin="round"/>
<path d="M120 130C125.523 130 130 125.523 130 120C130 114.477 125.523 110 120 110C114.477 110 110 114.477 110 120C110 125.523 114.477 130 120 130Z" stroke="#1F3A74" stroke-width="15" stroke-linecap="round" stroke-linejoin="round"/>
<path d="M189.44 123.3C190.187 121.163 190.187 118.837 189.44 116.7C183.81 102.904 174.198 91.0982 161.831 82.7876C149.463 74.4771 134.9 70.0388 120 70.0388C105.1 70.0388 90.537 74.4771 78.1694 82.7876C65.8019 91.0982 56.1901 102.904 50.56 116.7C49.8131 118.837 49.8131 121.163 50.56 123.3C56.1901 137.096 65.8019 148.902 78.1694 157.212C90.537 165.523 105.1 169.961 120 169.961C134.9 169.961 149.463 165.523 161.831 157.212C174.198 148.902 183.81 137.096 189.44 123.3Z" stroke="#1F3A74" stroke-width="15" stroke-linecap="round" stroke-linejoin="round"/>
</svg>
